<svg width="110" height="64" viewBox="0 0 110 64" fill="none" xmlns="http://www.w3.org/2000/svg">
<path d="M54.3382 23.6907H56.2602L48.6397 33.102H46.7178L54.3382 23.6907Z" fill="url(#paint0_linear_241_19)"/>
<path d="M64.5029 56.4814C65.0471 56.4815 65.531 56.5996 65.9551 56.835C66.3792 57.0704 66.7082 57.399 66.9414 57.8213C67.1817 58.2436 67.3018 58.7247 67.3018 59.2646C67.3018 59.8046 67.1853 60.2857 66.9521 60.708C66.7189 61.1234 66.3936 61.4492 65.9766 61.6846C65.5666 61.9199 65.0965 62.0371 64.5664 62.0371C64.1 62.0371 63.6829 61.9475 63.3154 61.7676C62.955 61.5807 62.6617 61.3139 62.4355 60.9678V64H61.6826V59.2754C61.6826 58.7286 61.7991 58.2436 62.0322 57.8213C62.2725 57.399 62.6052 57.0704 63.0293 56.835C63.4605 56.5996 63.9516 56.4814 64.5029 56.4814ZM84.7402 56.4814C85.2844 56.4814 85.7683 56.5996 86.1924 56.835C86.6165 57.0704 86.9455 57.399 87.1787 57.8213C87.419 58.2436 87.5391 58.7247 87.5391 59.2646C87.5391 59.8046 87.4226 60.2857 87.1895 60.708C86.9562 61.1234 86.6309 61.4492 86.2139 61.6846C85.8039 61.9199 85.3338 62.0371 84.8037 62.0371C84.3373 62.0371 83.9202 61.9475 83.5527 61.7676C83.1923 61.5807 82.899 61.3139 82.6729 60.9678V64H81.9199V59.2754C81.9199 58.7286 82.0364 58.2435 82.2695 57.8213C82.5098 57.399 82.8425 57.0704 83.2666 56.835C83.6978 56.5996 84.1889 56.4814 84.7402 56.4814ZM96.6768 61.3418H100.08V56.5234H100.833V61.3418H101.734V63.3564H101.023V61.9854H95.9238V56.5234H96.6768V61.3418ZM57.71 56.4814C58.247 56.4815 58.7311 56.5996 59.1621 56.835C59.5931 57.0703 59.9287 57.3991 60.1689 57.8213C60.4163 58.2435 60.54 58.7209 60.54 59.2539C60.54 59.787 60.4163 60.2652 60.1689 60.6875C59.9286 61.1097 59.5932 61.4423 59.1621 61.6846C58.7311 61.9199 58.2469 62.037 57.71 62.0371C57.1728 62.0371 56.688 61.92 56.2568 61.6846C55.8257 61.4423 55.4866 61.1098 55.2393 60.6875C54.9919 60.2652 54.8682 59.787 54.8682 59.2539C54.8682 58.721 54.992 58.2435 55.2393 57.8213C55.4866 57.3991 55.8258 57.0703 56.2568 56.835C56.688 56.5996 57.1728 56.4814 57.71 56.4814ZM77.9473 56.4814C78.4843 56.4815 78.9684 56.5996 79.3994 56.835C79.8305 57.0703 80.166 57.399 80.4062 57.8213C80.6536 58.2435 80.7773 58.7209 80.7773 59.2539C80.7773 59.787 80.6536 60.2652 80.4062 60.6875C80.1659 61.1097 79.8305 61.4423 79.3994 61.6846C78.9684 61.9199 78.4843 62.037 77.9473 62.0371C77.4101 62.0371 76.9253 61.92 76.4941 61.6846C76.063 61.4423 75.7239 61.1098 75.4766 60.6875C75.2292 60.2652 75.1055 59.787 75.1055 59.2539C75.1055 58.721 75.2293 58.2435 75.4766 57.8213C75.7239 57.3991 76.0631 57.0703 76.4941 56.835C76.9253 56.5996 77.4101 56.4814 77.9473 56.4814ZM91.1455 56.4814C91.5977 56.4815 92.0039 56.5749 92.3643 56.7617C92.7318 56.9417 93.0324 57.2085 93.2656 57.5615V56.5234H94.0186V61.9854H93.2979V60.9053C93.0717 61.2722 92.7711 61.5532 92.3965 61.7471C92.029 61.9409 91.6119 62.0371 91.1455 62.0371C90.6225 62.0371 90.1487 61.9199 89.7246 61.6846C89.3006 61.4492 88.9678 61.1205 88.7275 60.6982C88.4872 60.2759 88.3672 59.7939 88.3672 59.2539C88.3672 58.714 88.4873 58.2328 88.7275 57.8105C88.9678 57.3883 89.3006 57.0634 89.7246 56.835C90.1487 56.5996 90.6225 56.4814 91.1455 56.4814ZM29.4883 43.7529H38.1836L43.0723 37.6455H44.9951L39.5146 44.3926L54.0059 61.9854H52.0342L38.1836 45.2764H29.4883V61.9854H27.832V16.0645H29.4883V43.7529ZM73.7178 61.9854H72.9648V57.1768H69.4658V61.9854H68.7129V56.5234H73.7178V61.9854ZM103.714 61.9854H102.961V56.5234H103.714V61.9854ZM109.93 61.9854H109.24V60.1787H107.279L105.985 61.9854H105.169L106.559 60.0742C106.128 59.9565 105.795 59.7564 105.562 59.4727C105.328 59.1889 105.212 58.8286 105.212 58.3926C105.212 57.7835 105.424 57.3194 105.848 57.001C106.272 56.6825 106.852 56.5234 107.587 56.5234H109.93V61.9854ZM64.4814 57.125C64.0858 57.125 63.7291 57.2156 63.4111 57.3955C63.1002 57.5755 62.8564 57.8281 62.6797 58.1533C62.5101 58.4717 62.4249 58.8386 62.4248 59.2539C62.4248 59.6693 62.51 60.0398 62.6797 60.3652C62.8564 60.6906 63.1001 60.944 63.4111 61.124C63.729 61.3038 64.0859 61.3935 64.4814 61.3936C64.8773 61.3936 65.2347 61.304 65.5527 61.124C65.8708 60.944 66.1182 60.6906 66.2949 60.3652C66.4715 60.0399 66.5596 59.673 66.5596 59.2646C66.5596 58.8563 66.4715 58.4894 66.2949 58.1641C66.1182 57.8387 65.8708 57.5853 65.5527 57.4053C65.2347 57.2183 64.8773 57.125 64.4814 57.125ZM84.7188 57.125C84.3231 57.125 83.9664 57.2156 83.6484 57.3955C83.3375 57.5755 83.0937 57.828 82.917 58.1533C82.7474 58.4717 82.6622 58.8386 82.6621 59.2539C82.6621 59.6693 82.7474 60.0398 82.917 60.3652C83.0937 60.6906 83.3374 60.944 83.6484 61.124C83.9663 61.3038 84.3232 61.3935 84.7188 61.3936C85.1146 61.3936 85.472 61.304 85.79 61.124C86.1081 60.944 86.3555 60.6906 86.5322 60.3652C86.7088 60.0399 86.7969 59.673 86.7969 59.2646C86.7969 58.8563 86.7088 58.4894 86.5322 58.1641C86.3555 57.8387 86.1081 57.5853 85.79 57.4053C85.472 57.2184 85.1146 57.125 84.7188 57.125ZM57.71 57.125C57.3141 57.125 56.9567 57.2155 56.6387 57.3955C56.3278 57.5685 56.0802 57.8174 55.8965 58.1426C55.7198 58.4679 55.6319 58.8386 55.6318 59.2539C55.6318 59.6692 55.7198 60.0399 55.8965 60.3652C56.0803 60.6906 56.3277 60.944 56.6387 61.124C56.9567 61.297 57.3142 61.3828 57.71 61.3828C58.1054 61.3827 58.4587 61.2969 58.7695 61.124C59.0876 60.944 59.335 60.6906 59.5117 60.3652C59.6884 60.0399 59.7773 59.6693 59.7773 59.2539C59.7773 58.8386 59.6884 58.4679 59.5117 58.1426C59.335 57.8174 59.0875 57.5685 58.7695 57.3955C58.4587 57.2156 58.1056 57.1251 57.71 57.125ZM77.9473 57.125C77.5514 57.125 77.194 57.2155 76.876 57.3955C76.5651 57.5685 76.3175 57.8174 76.1338 58.1426C75.9571 58.4679 75.8692 58.8386 75.8691 59.2539C75.8691 59.6692 75.9571 60.0399 76.1338 60.3652C76.3176 60.6906 76.565 60.944 76.876 61.124C77.194 61.297 77.5515 61.3828 77.9473 61.3828C78.3428 61.3827 78.696 61.2969 79.0068 61.124C79.3249 60.944 79.5723 60.6906 79.749 60.3652C79.9257 60.0399 80.0146 59.6693 80.0146 59.2539C80.0146 58.8386 79.9257 58.4679 79.749 58.1426C79.5723 57.8174 79.3248 57.5685 79.0068 57.3955C78.696 57.2156 78.3429 57.1251 77.9473 57.125ZM91.209 57.125C90.8132 57.125 90.4558 57.2155 90.1377 57.3955C89.8269 57.5686 89.5792 57.8174 89.3955 58.1426C89.2188 58.4679 89.1309 58.8386 89.1309 59.2539C89.1309 59.6692 89.2189 60.0399 89.3955 60.3652C89.5793 60.6906 89.8267 60.944 90.1377 61.124C90.4558 61.2971 90.8132 61.3828 91.209 61.3828C91.5977 61.3828 91.9478 61.2971 92.2588 61.124C92.5769 60.944 92.8243 60.6906 93.001 60.3652C93.1847 60.0399 93.2764 59.6692 93.2764 59.2539C93.2763 58.8386 93.1847 58.4679 93.001 58.1426C92.8243 57.8174 92.5767 57.5685 92.2588 57.3955C91.9478 57.2155 91.5977 57.125 91.209 57.125ZM107.607 57.1768C106.519 57.1769 105.976 57.5893 105.976 58.4131C105.976 59.223 106.502 59.6279 107.555 59.6279H109.24V57.1768H107.607ZM103.343 54.2803C103.498 54.2804 103.628 54.332 103.734 54.4355C103.84 54.5325 103.894 54.6506 103.894 54.7891C103.894 54.9413 103.84 55.069 103.734 55.1729C103.628 55.2766 103.498 55.329 103.343 55.3291C103.187 55.3291 103.056 55.2767 102.95 55.1729C102.844 55.069 102.791 54.9442 102.791 54.7988C102.791 54.6605 102.844 54.5393 102.95 54.4355C103.056 54.3318 103.187 54.2803 103.343 54.2803ZM19.0107 0C21.5384 1.8742e-05 23.9084 0.411026 26.1201 1.23242C28.3317 2.01961 30.2279 3.20013 31.8076 4.77441L30.7012 5.9043C27.6469 3.0294 23.7677 1.59185 19.0635 1.5918C15.8336 1.5918 12.9016 2.32713 10.2686 3.79883C7.63565 5.23626 5.56426 7.22136 4.05469 9.75391C2.54508 12.2866 1.79004 15.0935 1.79004 18.1738C1.79005 21.2539 2.54526 24.0602 4.05469 26.5928C5.56423 29.1254 7.63567 31.1279 10.2686 32.5996C12.9016 34.0371 15.9869 34.7246 19.2168 34.7246H26.5059V36.3477H19.2168C15.636 36.3477 12.1824 35.5606 9.26855 33.9863C6.38976 32.412 4.12465 30.2381 2.47461 27.4658C0.824712 24.6937 1.00764e-05 21.5962 0 18.1738C0 14.7514 0.824737 11.654 2.47461 8.88184C4.12465 6.10957 6.38976 3.9357 9.26855 2.36133C12.1824 0.787056 15.4299 0 19.0107 0ZM110 36.3477H30.8135V34.7246H110V36.3477ZM35.1797 27.5986C35.7167 27.5987 36.2008 27.7159 36.6318 27.9512C37.063 28.1866 37.3993 28.5152 37.6396 28.9375C37.887 29.3598 38.0107 29.838 38.0107 30.3711C38.0107 30.9039 37.8868 31.3815 37.6396 31.8037C37.3993 32.226 37.063 32.5585 36.6318 32.8008C36.2007 33.0361 35.7168 33.1543 35.1797 33.1543C34.6425 33.1543 34.1577 33.0362 33.7266 32.8008C33.2956 32.5585 32.9563 32.2259 32.709 31.8037C32.4618 31.3815 32.3379 30.904 32.3379 30.3711C32.3379 29.838 32.4616 29.3598 32.709 28.9375C32.9563 28.5154 33.2956 28.1865 33.7266 27.9512C34.1577 27.7158 34.6425 27.5986 35.1797 27.5986ZM67.8398 27.5986C68.2921 27.5987 68.6982 27.692 69.0586 27.8789C69.426 28.0589 69.7267 28.3248 69.96 28.6777V27.6396H70.7129V33.1025H69.9922V32.0225C69.7661 32.3893 69.4653 32.6694 69.0908 32.8633C68.7234 33.0571 68.3062 33.1542 67.8398 33.1543C67.3168 33.1543 66.843 33.0362 66.4189 32.8008C65.9949 32.5654 65.6622 32.2368 65.4219 31.8145C65.1816 31.3922 65.0615 30.911 65.0615 30.3711C65.0615 29.8312 65.1817 29.35 65.4219 28.9277C65.6622 28.5054 65.9949 28.1796 66.4189 27.9512C66.843 27.7158 67.3169 27.5986 67.8398 27.5986ZM40.1602 30.0596H43.6699V27.6396H44.4229V33.1025H43.6699V30.6924H40.1602V33.1025H39.4082V27.6396H40.1602V30.0596ZM50.6318 33.1025H49.9434V31.2949H47.9814L46.6885 33.1025H45.8721L47.2607 31.1914C46.8296 31.0737 46.4969 30.8727 46.2637 30.5889C46.0306 30.3051 45.9141 29.9448 45.9141 29.5088C45.9141 28.8996 46.1267 28.4356 46.5508 28.1172C46.9748 27.7989 47.5542 27.6397 48.2891 27.6396H50.6318V33.1025ZM52.7471 29.3945C52.7471 29.8028 52.8811 30.1145 53.1494 30.3291C53.4179 30.5367 53.7893 30.6406 54.2627 30.6406C54.7857 30.6406 55.3732 30.5063 56.0234 30.2363V27.6396H56.7764V33.1025H56.0234V30.8281C55.3802 31.1051 54.747 31.2432 54.125 31.2432C53.4539 31.2431 52.9312 31.0943 52.5566 30.7969C52.1821 30.4923 51.9942 30.0387 51.9941 29.4365V27.6396H52.7471V29.3945ZM59.4541 30.0596H62.9639V27.6396H63.7168V33.1025H62.9639V30.6924H59.4541V33.1025H58.7021V27.6396H59.4541V30.0596ZM35.1797 28.2422C34.7839 28.2422 34.4265 28.3317 34.1084 28.5117C33.7974 28.6848 33.55 28.9344 33.3662 29.2598C33.1896 29.5851 33.1016 29.9558 33.1016 30.3711C33.1016 30.7864 33.1895 31.1571 33.3662 31.4824C33.5499 31.8077 33.7975 32.0603 34.1084 32.2402C34.4265 32.4133 34.7839 32.5 35.1797 32.5C35.5754 32.5 35.9293 32.4133 36.2402 32.2402C36.558 32.0603 36.8048 31.8075 36.9814 31.4824C37.1581 31.1571 37.247 30.7864 37.2471 30.3711C37.2471 29.9557 37.1581 29.5852 36.9814 29.2598C36.8048 28.9345 36.5581 28.6848 36.2402 28.5117C35.9293 28.3317 35.5754 28.2422 35.1797 28.2422ZM67.9033 28.2422C67.5075 28.2422 67.1501 28.3317 66.832 28.5117C66.521 28.6848 66.2736 28.9344 66.0898 29.2598C65.9132 29.5851 65.8252 29.9557 65.8252 30.3711C65.8252 30.7864 65.9132 31.1571 66.0898 31.4824C66.2736 31.8077 66.5211 32.0603 66.832 32.2402C67.1501 32.4133 67.5075 32.5 67.9033 32.5C68.292 32.5 68.6422 32.4133 68.9531 32.2402C69.271 32.0602 69.5187 31.8077 69.6953 31.4824C69.8791 31.1571 69.9707 30.7864 69.9707 30.3711C69.9707 29.9558 69.879 29.5851 69.6953 29.2598C69.5186 28.9344 69.2711 28.6848 68.9531 28.5117C68.6422 28.3317 68.292 28.2422 67.9033 28.2422ZM48.3105 28.2939C47.2222 28.2939 46.6779 28.7057 46.6777 29.5293C46.6777 30.3393 47.2046 30.7451 48.2578 30.7451H49.9434V28.2939H48.3105Z" fill="url(#paint1_linear_241_19)"/>
<defs>
<linearGradient id="paint0_linear_241_19" x1="51.489" y1="33.102" x2="51.489" y2="23.6907" gradientUnits="userSpaceOnUse">
<stop stop-color="#D48C48" stop-opacity="0"/>
<stop offset="0.587391" stop-color="#D48C48" stop-opacity="0.6"/>
<stop offset="1" stop-color="#D48C48" stop-opacity="0"/>
</linearGradient>
<linearGradient id="paint1_linear_241_19" x1="89.1265" y1="11.6831" x2="53.5836" y2="84.1263" gradientUnits="userSpaceOnUse">
<stop stop-color="#C49337"/>
<stop offset="0.275" stop-color="#FCF7CD"/>
<stop offset="0.495" stop-color="#EDCD78"/>
<stop offset="0.63" stop-color="#CC7738"/>
<stop offset="0.825" stop-color="#FDF8D0"/>
<stop offset="1" stop-color="#BB9138"/>
</linearGradient>
</defs>
</svg>
